<svg width="13" height="17" viewBox="0 0 13 17" fill="none" xmlns="http://www.w3.org/2000/svg">
<path d="M12.5729 5.68253C12.052 6.00144 11.6206 6.44728 11.3189 6.97834C11.0173 7.50941 10.8553 8.10832 10.8481 8.71903C10.8502 9.40639 11.0538 10.078 11.4338 10.6508C11.8138 11.2236 12.3535 11.6723 12.986 11.9413C12.7366 12.7459 12.3676 13.5084 11.8912 14.2031C11.2096 15.1843 10.4969 16.1654 9.41251 16.1654C8.32811 16.1654 8.04921 15.5354 6.79951 15.5354C5.58081 15.5354 5.14701 16.1861 4.15551 16.1861C3.16401 16.1861 2.47211 15.2772 1.67681 14.1618C0.626276 12.5993 0.0489174 10.7668 0.0140076 8.88423C0.0140076 5.78583 2.02801 4.14373 4.01091 4.14373C5.06441 4.14373 5.94231 4.83563 6.60331 4.83563C7.23331 4.83563 8.21451 4.10233 9.41251 4.10233C10.0285 4.08644 10.6389 4.22225 11.19 4.49781C11.7411 4.77337 12.216 5.18023 12.5729 5.68253ZM8.84451 2.79073C9.37261 2.16949 9.67155 1.38586 9.69141 0.570732C9.6923 0.463274 9.68191 0.35602 9.66041 0.250732C8.75327 0.339346 7.91441 0.771707 7.31591 1.45913C6.78271 2.05562 6.47251 2.81832 6.43801 3.61763C6.43841 3.71484 6.4488 3.81175 6.46901 3.90683C6.54052 3.92035 6.61313 3.92728 6.68591 3.92753C7.10398 3.89427 7.51092 3.77634 7.882 3.58091C8.25309 3.38549 8.58055 3.11665 8.84451 2.79073Z" fill="white" fill-opacity="0.8"/>
</svg>
