<svg width="16" height="44" viewBox="0 0 16 44" fill="none" xmlns="http://www.w3.org/2000/svg">
<g clip-path="url(#clip0_28_286)">
<path d="M14.4879 27.202L10.6179 23.332C11.3189 22.403 11.7399 21.251 11.7399 20C11.7399 16.94 9.25089 14.45 6.18989 14.45C3.12989 14.45 0.639893 16.94 0.639893 20C0.639893 23.061 3.12989 25.55 6.18989 25.55C7.44089 25.55 8.59289 25.129 9.52189 24.428L13.3919 28.298C13.5429 28.449 13.7419 28.526 13.9399 28.526C14.1379 28.526 14.3359 28.45 14.4879 28.298C14.7909 27.995 14.7909 27.505 14.4879 27.202ZM1.73989 20C1.73989 17.546 3.73689 15.55 6.18989 15.55C8.64389 15.55 10.6399 17.547 10.6399 20C10.6399 22.453 8.64389 24.45 6.18989 24.45C3.73589 24.45 1.73989 22.454 1.73989 20Z" fill="white" fill-opacity="0.8"/>
</g>
<defs>
<clipPath id="clip0_28_286">
<rect width="15" height="44" fill="white" transform="translate(0.189941)"/>
</clipPath>
</defs>
</svg>
